<svg id="Capa_1" enable-background="new 0 0 512 512" height="512" viewBox="0 0 512 512" width="512" xmlns="http://www.w3.org/2000/svg"><g><path d="m508.668 294.971c-.719-1.443-18.059-35.739-57.936-69.948-23.332-20.016-49.665-35.963-78.268-47.399-35.616-14.241-74.8-21.461-116.464-21.461s-80.848 7.22-116.464 21.461c-28.603 11.436-54.936 27.383-78.268 47.399-39.877 34.209-57.217 68.505-57.936 69.948l-3.332 6.691 3.332 6.691c.719 1.443 18.059 35.739 57.936 69.948 23.332 20.016 49.665 35.963 78.268 47.399 35.616 14.241 74.8 21.461 116.464 21.461s80.848-7.22 116.464-21.461c28.603-11.436 54.936-27.383 78.268-47.399 39.877-34.209 57.217-68.505 57.936-69.948l3.332-6.691zm-137.285 6.691c0 63.687-51.76 115.5-115.383 115.5s-115.383-51.813-115.383-115.5 51.76-115.5 115.383-115.5 115.383 51.813 115.383 115.5zm-289.599 54.726c-25.741-21.846-41.131-43.974-47.766-54.725 6.646-10.767 22.034-32.888 47.766-54.727 19.326-16.402 40.488-29.515 63.376-39.301-21.517 25.377-34.512 58.212-34.512 94.027s12.995 68.649 34.512 94.027c-22.888-9.787-44.05-22.9-63.376-39.301zm348.432 0c-19.326 16.402-40.488 29.515-63.376 39.301 21.517-25.377 34.512-58.212 34.512-94.027s-12.995-68.649-34.512-94.027c22.888 9.787 44.05 22.9 63.376 39.301 25.741 21.846 41.131 43.974 47.766 54.725-6.645 10.767-22.033 32.888-47.766 54.727z"/><path d="m256 126.162c103.768 0 173.777 41.373 214.234 76.081l19.502-22.779c-10.33-8.862-22.413-18.122-36.301-27.111 10.812-9.483 17.65-23.4 17.65-38.887v-10h-29.97v10c0 10.721-7.809 19.65-18.031 21.389-9.888-5.042-20.45-9.822-31.7-14.191 7.766-9.038 12.465-20.784 12.465-33.606v-10h-29.97v10c0 11.233-8.62 20.494-19.603 21.537-11.092-2.939-22.719-5.447-34.889-7.424 4.568-7.72 7.193-16.726 7.193-26.334v-10h-29.97v10c0 11.9-9.552 21.6-21.358 21.77-6.296-.294-12.713-.446-19.253-.446-112.93 0-189.439 45.3-233.736 83.302l19.502 22.779c40.458-34.707 110.467-76.08 214.235-76.08z"/><path d="m256 372.401c38.966 0 70.667-31.733 70.667-70.739 0-1.296-.036-2.595-.107-3.892 5.261-7.367 8.359-16.382 8.359-26.108 0-24.813-20.167-45-44.954-45-7.711 0-14.975 1.954-21.324 5.393-4.156-.752-8.386-1.132-12.641-1.132-38.966 0-70.667 31.733-70.667 70.739s31.701 70.739 70.667 70.739zm33.965-115.739c8.263 0 14.985 6.729 14.985 15s-6.722 15-14.985 15-14.985-6.729-14.985-15 6.723-15 14.985-15zm-43.945 5.501c-.66 3.063-1.008 6.241-1.008 9.499 0 24.813 20.167 45 44.954 45 1.328 0 2.643-.058 3.942-.172-5.936 15.153-20.69 25.911-37.907 25.911-22.441 0-40.697-18.275-40.697-40.739-.001-19.018 13.084-35.033 30.716-39.499z"/></g></svg>